<svg width="48" height="39" viewBox="0 0 48 39" fill="none" xmlns="http://www.w3.org/2000/svg">
<path d="M3 12.4255V31.2764C3 32.5263 3.49652 33.725 4.38033 34.6088C5.26413 35.4926 6.46283 35.9891 7.71273 35.9891H40.7018C41.9517 35.9891 43.1504 35.4926 44.0342 34.6088C44.918 33.725 45.4146 32.5263 45.4146 31.2764V12.4255M3 12.4255V7.71273C3 6.46283 3.49652 5.26413 4.38033 4.38033C5.26413 3.49652 6.46283 3 7.71273 3H40.7018C41.9517 3 43.1504 3.49652 44.0342 4.38033C44.918 5.26413 45.4146 6.46283 45.4146 7.71273V12.4255M3 12.4255H45.4146M12.4255 21.8509H24.2073" stroke="#BFBABA" stroke-width="5" stroke-linecap="round" stroke-linejoin="round"/>
</svg>
