<svg width="141" height="141" viewBox="0 0 141 141" fill="none" xmlns="http://www.w3.org/2000/svg">
<path d="M0 0H141V141H0V0Z" fill="white" fill-opacity="0.01"/>
<path d="M70.5 129.25C86.7232 129.25 101.411 122.674 112.042 112.042C122.674 101.411 129.25 86.7232 129.25 70.5C129.25 54.2767 122.674 39.5892 112.042 28.9574C101.411 18.3258 86.7232 11.75 70.5 11.75C54.2768 11.75 39.5893 18.3258 28.9575 28.9574C18.3258 39.5892 11.75 54.2767 11.75 70.5C11.75 86.7232 18.3258 101.411 28.9575 112.042C39.5893 122.674 54.2768 129.25 70.5 129.25Z" fill="#6FC63A" stroke="#6FC63A" stroke-width="8" stroke-linejoin="round"/>
<path d="M44.3468 71.0686L61.9718 88.6936L97.2218 53.4436" stroke="white" stroke-width="11" stroke-linecap="round" stroke-linejoin="round"/>
</svg>
