<svg width="39" height="39" viewBox="0 0 39 39" fill="none" xmlns="http://www.w3.org/2000/svg">
<path fill-rule="evenodd" clip-rule="evenodd" d="M0 19.5C0 8.73015 8.73015 0 19.5 0C30.2698 0 39 8.73015 39 19.5C39 30.2698 30.2698 39 19.5 39C8.73015 39 0 30.2698 0 19.5ZM16.0037 13.2464C15.6359 12.8911 15.1433 12.6946 14.632 12.699C14.1207 12.7035 13.6316 12.9086 13.2701 13.2701C12.9086 13.6316 12.7035 14.1207 12.699 14.632C12.6946 15.1433 12.8911 15.6359 13.2464 16.0037L16.7427 19.5L13.2464 22.9964C13.0601 23.1762 12.9115 23.3914 12.8094 23.6293C12.7072 23.8672 12.6534 24.1231 12.6511 24.382C12.6489 24.6409 12.6982 24.8977 12.7962 25.1374C12.8943 25.377 13.0391 25.5947 13.2222 25.7778C13.4053 25.9609 13.623 26.1057 13.8626 26.2038C14.1023 26.3018 14.3591 26.3511 14.618 26.3489C14.8769 26.3466 15.1328 26.2928 15.3707 26.1906C15.6086 26.0885 15.8238 25.9399 16.0037 25.7537L19.5 22.2573L22.9964 25.7537C23.3641 26.1089 23.8567 26.3054 24.368 26.301C24.8793 26.2965 25.3684 26.0914 25.7299 25.7299C26.0914 25.3684 26.2965 24.8793 26.301 24.368C26.3054 23.8567 26.1089 23.3641 25.7537 22.9964L22.2573 19.5L25.7537 16.0037C26.1089 15.6359 26.3054 15.1433 26.301 14.632C26.2965 14.1207 26.0914 13.6316 25.7299 13.2701C25.3684 12.9086 24.8793 12.7035 24.368 12.699C23.8567 12.6946 23.3641 12.8911 22.9964 13.2464L19.5 16.7427L16.0037 13.2464Z" fill="#FF0000"/>
</svg>
