<svg width="50" height="40" viewBox="0 0 50 40" fill="none" xmlns="http://www.w3.org/2000/svg">
<path d="M41.7502 0H7.38659C5.43363 0 3.56066 0.790177 2.17971 2.1967C0.798759 3.60322 0.0229492 5.51088 0.0229492 7.5V32.5C0.0229492 34.4891 0.798759 36.3968 2.17971 37.8033C3.56066 39.2098 5.43363 40 7.38659 40H41.7502C43.7032 40 45.5762 39.2098 46.9571 37.8033C48.3381 36.3968 49.1139 34.4891 49.1139 32.5V7.5C49.1139 5.51088 48.3381 3.60322 46.9571 2.1967C45.5762 0.790177 43.7032 0 41.7502 0ZM40.7439 5L26.3111 19.7C26.083 19.9343 25.8115 20.1203 25.5124 20.2472C25.2133 20.3741 24.8924 20.4395 24.5684 20.4395C24.2444 20.4395 23.9236 20.3741 23.6244 20.2472C23.3253 20.1203 23.0539 19.9343 22.8257 19.7L8.39295 5H40.7439ZM44.2048 32.5C44.2048 33.163 43.9462 33.7989 43.4859 34.2678C43.0255 34.7366 42.4012 35 41.7502 35H7.38659C6.7356 35 6.11128 34.7366 5.65096 34.2678C5.19064 33.7989 4.93204 33.163 4.93204 32.5V8.525L19.3648 23.225C20.7455 24.6295 22.617 25.4184 24.5684 25.4184C26.5198 25.4184 28.3914 24.6295 29.772 23.225L44.2048 8.525V32.5Z" fill="#BFBABA"/>
</svg>
