<svg width="40" height="40" viewBox="0 0 40 40" fill="none" xmlns="http://www.w3.org/2000/svg">
<path d="M27.8564 13.0186C27.7728 12.9077 27.6834 12.8011 27.5887 12.6994C27.684 12.4456 27.7564 12.1836 27.805 11.9169C27.9484 10.9409 27.8239 9.94427 27.4446 9.03365C27.4446 9.03365 26.2913 8.67325 23.6449 10.4547C22.5214 10.1444 21.3609 9.98855 20.1954 9.99129C19.0265 9.98924 17.8627 10.1451 16.7355 10.4547C14.0891 8.65266 12.9359 9.03365 12.9359 9.03365C12.5612 9.93464 12.4366 10.9201 12.5755 11.886C12.6243 12.1638 12.7002 12.4363 12.802 12.6994C12.7093 12.8024 12.6167 12.9157 12.5343 13.0186C11.7659 13.9825 11.358 15.1843 11.381 16.4167C11.3786 16.709 11.3923 17.0012 11.4222 17.292C11.7516 21.8536 14.7894 22.9142 17.6829 23.2437C17.2733 23.6245 16.9956 24.1258 16.89 24.675C16.7943 25.0413 16.7492 25.4189 16.7561 25.7974V27.1459C15.6047 27.2482 14.4223 27.0807 14.056 26.053C13.6622 25.0697 13.0095 24.2114 12.167 23.5692C12.1058 23.5358 12.0476 23.4971 11.993 23.4536C11.919 23.259 11.7879 23.0914 11.6168 22.9728C11.4458 22.8541 11.2428 22.79 11.0347 22.7889H11.0297C10.7575 22.7888 10.4963 22.8966 10.3033 23.0886C10.1103 23.2807 10.0012 23.5413 10 23.8136C9.996 24.6502 10.8331 25.1902 11.1765 25.3743C11.577 25.7778 11.8992 26.252 12.1268 26.773C12.5019 27.8269 13.5985 29.4278 16.7253 29.2196C16.7264 29.2558 16.7274 29.29 16.7279 29.3212L16.7324 29.5967C16.7324 29.732 16.759 29.8659 16.8107 29.9908C16.8624 30.1158 16.9383 30.2293 17.0339 30.3249C17.1295 30.4205 17.2431 30.4964 17.368 30.5481C17.493 30.5999 17.6269 30.6265 17.7621 30.6264L17.7653 30.6258L22.6164 30.6265C22.7517 30.6265 22.8856 30.5999 23.0105 30.5482C23.1355 30.4964 23.249 30.4206 23.3446 30.3249C23.4402 30.2293 23.5161 30.1158 23.5678 29.9908C23.6196 29.8659 23.6462 29.732 23.6461 29.5967C23.6461 29.5967 23.6537 26.3432 23.6537 25.7975C23.6605 25.419 23.6155 25.0413 23.5198 24.6751L23.5179 24.6688L23.5214 24.6751C23.5125 24.639 23.499 24.6097 23.4893 24.5747C23.3744 24.0646 23.1087 23.6009 22.7269 23.2437L22.7388 23.2652C22.7318 23.2589 22.7252 23.2499 22.7181 23.2437C25.6116 22.9142 28.6287 21.833 28.9582 17.292C28.9881 17.0012 29.0019 16.709 28.9994 16.4167C29.0176 15.1867 28.6143 13.9876 27.8564 13.0186Z" fill="white"/>
<circle cx="20" cy="20" r="18.5" stroke="white" stroke-width="3"/>
</svg>
