<svg width="41" height="36" viewBox="0 0 41 36" fill="none" xmlns="http://www.w3.org/2000/svg">
<path d="M6.79557 12.8995V32.0818C6.79557 32.5905 6.99767 33.0784 7.35741 33.4382C7.71714 33.7979 8.20505 34 8.7138 34H16.3867M6.79557 12.8995L18.9763 2.4605C19.3238 2.16331 19.7659 2 20.2232 2C20.6804 2 21.1226 2.16331 21.47 2.4605L33.6508 12.8995M6.79557 12.8995L2 16.736M16.3867 34V24.4089C16.3867 23.9001 16.5888 23.4122 16.9485 23.0525C17.3083 22.6927 17.7962 22.4906 18.3049 22.4906H22.1414C22.6501 22.4906 23.138 22.6927 23.4978 23.0525C23.8575 23.4122 24.0596 23.9001 24.0596 24.4089V34M16.3867 34H24.0596M33.6508 12.8995V32.0818C33.6508 32.5905 33.4487 33.0784 33.0889 33.4382C32.7292 33.7979 32.2413 34 31.7325 34H24.0596M33.6508 12.8995L38.4463 16.736" stroke="#2864AE" stroke-width="4" stroke-linecap="round" stroke-linejoin="round"/>
</svg>
