<svg width="40" height="40" viewBox="0 0 40 40" fill="none" xmlns="http://www.w3.org/2000/svg">
<circle cx="20" cy="20" r="18.5" stroke="white" stroke-width="3"/>
<path d="M20.2918 16.3333C20.7781 16.3333 21.2444 16.5265 21.5882 16.8703C21.932 17.2141 22.1252 17.6804 22.1252 18.1667V29.1667C22.1252 29.6529 21.932 30.1192 21.5882 30.463C21.2444 30.8068 20.7781 31 20.2918 31C19.8056 31 19.3393 30.8068 18.9955 30.463C18.6516 30.1192 18.4585 29.6529 18.4585 29.1667V18.1667C18.4585 17.6804 18.6516 17.2141 18.9955 16.8703C19.3393 16.5265 19.8056 16.3333 20.2918 16.3333ZM20.2918 9C20.7451 9 21.1881 9.1344 21.565 9.38622C21.9419 9.63803 22.2356 9.99594 22.4091 10.4147C22.5825 10.8334 22.6279 11.2942 22.5395 11.7387C22.451 12.1833 22.2328 12.5916 21.9123 12.9121C21.5918 13.2326 21.1835 13.4509 20.7389 13.5393C20.2944 13.6277 19.8336 13.5823 19.4148 13.4089C18.9961 13.2354 18.6382 12.9417 18.3864 12.5648C18.1346 12.188 18.0002 11.7449 18.0002 11.2917C18.0002 10.6839 18.2416 10.101 18.6714 9.67121C19.1011 9.24144 19.684 9 20.2918 9Z" fill="white"/>
</svg>
