<svg width="139" height="48" viewBox="0 0 139 48" fill="none" xmlns="http://www.w3.org/2000/svg">
<line x1="3.68925e-09" y1="21.7018" x2="28.4503" y2="21.7018" stroke="#6FC63A" stroke-width="4"/>
<line x1="3.68925e-09" y1="33.0819" x2="41.4561" y2="33.0819" stroke="#EAD200" stroke-width="4"/>
<line y1="45.2749" x2="53.6491" y2="45.2749" stroke="#5798FF" stroke-width="4"/>
<line x1="110.55" y1="21.7018" x2="139" y2="21.7018" stroke="#6FC63A" stroke-width="4"/>
<line x1="97.5438" y1="33.0819" x2="139" y2="33.0819" stroke="#EAD200" stroke-width="4"/>
<line x1="85.3508" y1="45.2749" x2="139" y2="45.2749" stroke="#5798FF" stroke-width="4"/>
<path d="M86.3997 29.2146L70.1337 45.1637M86.3997 29.2146L80.9777 34.5309M86.3997 29.2146L97.2437 18.5818L80.9777 2.63275L60.6453 22.5691M86.3997 29.2146L75.5557 18.5818L67.4227 26.5564L60.6453 22.5691M70.1337 45.1637L43.0238 18.5818L59.2898 2.63275L70.1337 13.2655L60.6453 22.5691M70.1337 45.1637L75.5557 39.8473M80.9777 34.5309L76.9112 30.5437M80.9777 34.5309L75.5557 39.8473M75.5557 39.8473L71.4892 35.86" stroke="white" stroke-width="4" stroke-linecap="round" stroke-linejoin="round"/>
</svg>
