<svg width="42" height="42" viewBox="0 0 42 42" fill="none" xmlns="http://www.w3.org/2000/svg">
<path d="M36.0421 22.9996C35.6006 22.9996 35.1389 22.8591 34.6973 22.7587C33.8031 22.5617 32.9243 22.3001 32.0679 21.9759C31.1367 21.6372 30.1131 21.6548 29.1942 22.0253C28.2752 22.3959 27.5257 23.0932 27.09 23.9831L26.6484 24.8864C24.6934 23.7988 22.8969 22.4481 21.3092 20.872C19.7331 19.2843 18.3824 17.4878 17.2948 15.5328L18.1379 14.9708C19.0278 14.5351 19.7251 13.7856 20.0957 12.8666C20.4662 11.9476 20.4838 10.9241 20.1451 9.99292C19.8264 9.13468 19.5649 8.25628 19.3623 7.36348C19.2619 6.92189 19.1816 6.46024 19.1214 5.99858C18.8776 4.58474 18.1371 3.30439 17.0331 2.3881C15.9292 1.4718 14.5343 0.97978 13.0998 1.00064H7.07816C6.21311 0.992515 5.35647 1.17087 4.56656 1.52358C3.77664 1.87628 3.07199 2.39503 2.50058 3.04454C1.92917 3.69404 1.50441 4.45904 1.25523 5.28745C1.00604 6.11587 0.938271 6.98825 1.05654 7.84521C2.12585 16.2542 5.96622 24.0672 11.971 30.0502C17.9758 36.0332 25.8028 39.8451 34.2156 40.8838H34.9783C36.4585 40.886 37.8876 40.3429 38.9927 39.3583C39.6277 38.7904 40.135 38.0942 40.481 37.3156C40.827 36.5371 41.0039 35.6941 40.9999 34.8421V28.8205C40.9753 27.4263 40.4676 26.0838 39.5635 25.0222C38.6593 23.9606 37.4147 23.2457 36.0421 22.9996ZM37.0457 35.0428C37.0454 35.3278 36.9843 35.6095 36.8667 35.8691C36.749 36.1286 36.5774 36.3602 36.3633 36.5483C36.1397 36.743 35.8775 36.8883 35.5939 36.9748C35.3103 37.0612 35.0116 37.0869 34.7174 37.0501C27.2002 36.0862 20.2178 32.6472 14.8716 27.2755C9.52533 21.9039 6.11953 14.9052 5.19138 7.38355C5.15944 7.08953 5.18743 6.79209 5.27368 6.50919C5.35993 6.2263 5.50264 5.96383 5.69318 5.73764C5.88128 5.52354 6.11281 5.35194 6.37238 5.23427C6.63195 5.1166 6.91359 5.05555 7.19859 5.05519H13.2202C13.687 5.04481 14.1428 5.19746 14.5091 5.48688C14.8755 5.77631 15.1295 6.18439 15.2274 6.64088C15.3077 7.18952 15.4081 7.73147 15.5285 8.26672C15.7604 9.32481 16.069 10.3646 16.4518 11.3779L13.6417 12.6826C13.4015 12.7928 13.1853 12.9494 13.0058 13.1434C12.8262 13.3374 12.6867 13.565 12.5953 13.813C12.5039 14.0611 12.4624 14.3247 12.4732 14.5889C12.484 14.853 12.5469 15.1124 12.6582 15.3522C15.547 21.5399 20.5209 26.5138 26.7086 29.4026C27.1973 29.6034 27.7454 29.6034 28.2341 29.4026C28.4844 29.3131 28.7145 29.1747 28.9109 28.9955C29.1073 28.8163 29.2661 28.5999 29.3782 28.3589L30.6227 25.5488C31.6603 25.9199 32.7194 26.2282 33.7941 26.4721C34.3293 26.5925 34.8713 26.6929 35.4199 26.7732C35.8764 26.8711 36.2845 27.1251 36.5739 27.4914C36.8633 27.8578 37.016 28.3136 37.0056 28.7804L37.0457 35.0428Z" fill="#BFBABA" stroke="#BFBABA"/>
</svg>
