<svg width="130" height="132" viewBox="0 0 130 132" fill="none" xmlns="http://www.w3.org/2000/svg">
<circle cx="47.2356" cy="42.3659" r="23.8613" fill="#277AFF"/>
<path fill-rule="evenodd" clip-rule="evenodd" d="M1.96965e-07 52.6214C0.000910445 44.2149 2.01562 35.931 5.87548 28.4631C9.73533 20.9952 15.328 14.5606 22.1853 9.69794C29.0427 4.8353 36.9651 1.68613 45.2894 0.51405C53.6137 -0.658033 62.0977 0.181082 70.0312 2.96115C77.9646 5.74122 85.1166 10.3813 90.8885 16.4931C96.6604 22.6048 100.884 30.0103 103.206 38.0897C105.529 46.169 105.881 54.6871 104.236 62.9308C102.59 71.1746 98.9929 78.9041 93.7463 85.4723L115.236 106.962C116.301 108.065 116.89 109.542 116.877 111.075C116.864 112.608 116.249 114.075 115.164 115.159C114.08 116.243 112.614 116.858 111.08 116.871C109.547 116.885 108.07 116.295 106.967 115.23L85.478 93.7406C77.7352 99.9272 68.4028 103.802 58.555 104.918C48.7072 106.034 38.7444 104.347 29.8132 100.051C20.882 95.7546 13.3455 89.0236 8.07119 80.6327C2.79688 72.2419 -0.000857104 62.5322 1.96965e-07 52.6214ZM40.9321 23.3841C42.483 23.3841 43.9703 24.0002 45.0669 25.0968C46.1635 26.1934 46.7796 27.6807 46.7796 29.2316C46.7796 30.7824 46.1635 32.2697 45.0669 33.3663C43.9703 34.4629 42.483 35.079 40.9321 35.079C39.3813 35.079 37.894 35.6951 36.7974 36.7917C35.7008 37.8883 35.0847 39.3756 35.0847 40.9265C35.0847 42.4773 34.4686 43.9646 33.372 45.0612C32.2754 46.1578 30.7881 46.7739 29.2372 46.7739C27.6864 46.7739 26.1991 46.1578 25.1025 45.0612C24.0059 43.9646 23.3898 42.4773 23.3898 40.9265C23.3898 36.2739 25.238 31.812 28.5278 28.5221C31.8177 25.2323 36.2796 23.3841 40.9321 23.3841Z" fill="#277AFF"/>
<path fill-rule="evenodd" clip-rule="evenodd" d="M30.3689 43.3959C30.3692 40.8209 31.0263 38.2885 32.278 36.0382C33.5298 33.7879 35.3348 31.894 37.5224 30.5356C39.71 29.1773 42.2079 28.3993 44.78 28.2753C47.352 28.1513 49.9132 28.6854 52.2213 29.827C54.5294 30.9686 56.5083 32.6801 57.9707 34.7995C59.4331 36.919 60.3307 39.3764 60.5788 41.9395C60.8268 44.5025 60.4171 47.0865 59.3882 49.4471C58.3594 51.8076 56.7455 53.8668 54.6991 55.4298C61.1185 58.3014 65.6959 64.1077 65.6959 71.1529C65.6959 71.8221 65.4301 72.464 64.9568 72.9372C64.4836 73.4104 63.8418 73.6763 63.1726 73.6763H27.8455C27.1763 73.6763 26.5344 73.4104 26.0612 72.9372C25.588 72.464 25.3221 71.8221 25.3221 71.1529C25.3221 64.1077 29.8995 58.3014 36.3189 55.4298C34.4672 54.0179 32.9667 52.1971 31.9346 50.1097C30.9025 48.0223 30.3666 45.7246 30.3689 43.3959ZM78.3127 73.6763H68.2193C68.8885 73.6763 69.5303 73.4104 70.0036 72.9372C70.4768 72.464 70.7426 71.8221 70.7426 71.1529C70.7426 64.1077 66.1653 58.3014 59.7458 55.4298C61.9145 53.7732 63.5952 51.5613 64.6103 49.0282C65.6255 46.495 65.9373 43.7346 65.5128 41.0388C65.0883 38.343 63.9433 35.8119 62.1988 33.7133C60.4544 31.6146 58.1753 30.0263 55.6025 29.1162C59.0052 27.9083 62.7276 27.9563 66.0981 29.2515C69.4686 30.5466 72.2652 33.0038 73.9834 36.1795C75.7016 39.3553 76.2283 43.0405 75.4684 46.5704C74.7085 50.1003 72.7121 53.2424 69.8393 55.4298C76.2587 58.3014 80.8361 64.1077 80.8361 71.1529C80.8361 71.8221 80.5702 72.464 80.097 72.9372C79.6238 73.4104 78.9819 73.6763 78.3127 73.6763Z" fill="white"/>
<line x1="80.2892" y1="79.8522" x2="122.99" y2="122.461" stroke="#277AFF" stroke-width="13" stroke-linecap="round"/>
</svg>
