<svg width="33" height="33" viewBox="0 0 33 33" fill="none" xmlns="http://www.w3.org/2000/svg">
<path fill-rule="evenodd" clip-rule="evenodd" d="M0.200684 4.99972C0.200684 3.72964 0.705221 2.51158 1.6033 1.6135C2.50138 0.715414 3.71945 0.210876 4.98952 0.210876H14.8442C16.113 0.210876 17.332 0.71488 18.2305 1.61339L31.0029 14.3858C31.4478 14.8305 31.8008 15.3585 32.0416 15.9397C32.2825 16.5209 32.4064 17.1438 32.4064 17.7729C32.4064 18.402 32.2825 19.0249 32.0416 19.6061C31.8008 20.1873 31.4478 20.7153 31.0029 21.16L21.1482 31.0131C20.7036 31.4578 20.1756 31.8106 19.5946 32.0512C19.0136 32.2919 18.3908 32.4158 17.7619 32.4158C17.133 32.4158 16.5103 32.2919 15.9292 32.0512C15.3482 31.8106 14.8203 31.4578 14.3756 31.0131L1.6032 18.2407C1.15852 17.796 0.805789 17.268 0.565145 16.687C0.324501 16.106 0.200656 15.4833 0.200684 14.8544V4.99972ZM8.9813 11.3859C9.61634 11.3859 10.2254 11.1336 10.6744 10.6846C11.1235 10.2356 11.3757 9.62653 11.3757 8.99149C11.3757 8.35645 11.1235 7.74742 10.6744 7.29838C10.2254 6.84934 9.61634 6.59707 8.9813 6.59707C8.34626 6.59707 7.73723 6.84934 7.28819 7.29838C6.83915 7.74742 6.58688 8.35645 6.58688 8.99149C6.58688 9.62653 6.83915 10.2356 7.28819 10.6846C7.73723 11.1336 8.34626 11.3859 8.9813 11.3859Z" fill="white"/>
</svg>
