<svg width="41" height="41" viewBox="0 0 41 41" fill="none" xmlns="http://www.w3.org/2000/svg">
<path fill-rule="evenodd" clip-rule="evenodd" d="M6.56001 35.5306C4.48827 33.6137 2.83587 31.2887 1.70687 28.7019C0.577862 26.115 -0.00328757 23.3225 1.39887e-05 20.5C1.39887e-05 9.17784 9.17786 0 20.5 0C31.8221 0 41 9.17784 41 20.5C41.0033 23.3225 40.4221 26.115 39.2931 28.7019C38.1641 31.2887 36.5117 33.6137 34.44 35.5306C33.9535 33.5549 33.0532 31.705 31.7987 30.1031C30.5442 28.5012 28.964 27.1838 27.1625 26.2379C28.7542 24.8758 29.8903 23.0586 30.4177 21.031C30.9452 19.0035 30.8387 16.8631 30.1126 14.8979C29.3866 12.9328 28.0757 11.2373 26.3567 10.0398C24.6376 8.84233 22.593 8.20037 20.4979 8.20037C18.4029 8.20037 16.3582 8.84233 14.6392 10.0398C12.9202 11.2373 11.6093 12.9328 10.8833 14.8979C10.1572 16.8631 10.0507 19.0035 10.5781 21.031C11.1056 23.0586 12.2417 24.8758 13.8334 26.2379C12.0327 27.1842 10.4533 28.5018 9.19948 30.1037C7.94568 31.7056 7.04605 33.5553 6.56001 35.5306ZM10.2705 38.2694C13.3807 40.0637 16.9093 41.0056 20.5 41C24.2248 41 27.716 40.0057 30.7295 38.2694C30.5647 35.6683 29.4153 33.2276 27.515 31.4439C25.6147 29.6602 23.1063 28.6673 20.5 28.6673C17.8937 28.6673 15.3853 29.6602 13.485 31.4439C11.5847 33.2276 10.4353 35.6683 10.2705 38.2694ZM20.5 12.3C19.6924 12.3 18.8926 12.4591 18.1465 12.7681C17.4003 13.0772 16.7224 13.5302 16.1513 14.1013C15.5802 14.6724 15.1272 15.3503 14.8181 16.0965C14.5091 16.8426 14.35 17.6424 14.35 18.45C14.35 19.2576 14.5091 20.0573 14.8181 20.8035C15.1272 21.5496 15.5802 22.2276 16.1513 22.7987C16.7224 23.3698 17.4003 23.8228 18.1465 24.1318C18.8926 24.4409 19.6924 24.6 20.5 24.6C22.1311 24.6 23.6954 23.952 24.8487 22.7987C26.0021 21.6453 26.65 20.0811 26.65 18.45C26.65 16.8189 26.0021 15.2546 24.8487 14.1013C23.6954 12.9479 22.1311 12.3 20.5 12.3Z" fill="white"/>
</svg>
