<svg width="41" height="47" viewBox="0 0 41 47" fill="none" xmlns="http://www.w3.org/2000/svg">
<path fill-rule="evenodd" clip-rule="evenodd" d="M10.25 15.374C10.25 12.6555 11.3299 10.0484 13.2522 8.12611C15.1744 6.20386 17.7815 5.12396 20.5 5.12396C23.2185 5.12396 25.8256 6.20386 27.7478 8.12611C29.6701 10.0484 30.75 12.6555 30.75 15.374C30.75 18.0924 29.6701 20.6996 27.7478 22.6218C25.8256 24.5441 23.2185 25.624 20.5 25.624C17.7815 25.624 15.1744 24.5441 13.2522 22.6218C11.3299 20.6996 10.25 18.0924 10.25 15.374ZM29.8326 27.5945C32.3882 25.6429 34.2677 22.9392 35.2064 19.8638C36.1452 16.7883 36.0961 13.4959 35.0661 10.4498C34.036 7.40368 32.0768 4.75719 29.4641 2.88269C26.8515 1.00818 23.7168 0 20.5013 0C17.2857 0 14.1511 1.00818 11.5384 2.88269C8.92577 4.75719 6.96657 7.40368 5.9365 10.4498C4.90643 13.4959 4.85734 16.7883 5.79612 19.8638C6.73491 22.9392 8.61433 25.6429 11.1699 27.5945C4.64581 30.5106 0 36.407 0 43.5615C0 44.2411 0.269977 44.8929 0.750539 45.3734C1.2311 45.854 1.88288 46.124 2.5625 46.124H38.4375C39.1171 46.124 39.7689 45.854 40.2495 45.3734C40.73 44.8929 41 44.2411 41 43.5615C41 36.407 36.3516 30.5106 29.8326 27.5945ZM20.5 30.749C12.7715 30.749 6.84444 35.3691 5.44275 40.999H35.5572C34.1556 35.3691 28.2285 30.749 20.5 30.749Z" fill="#BFBABA"/>
</svg>
