<svg width="45" height="50" viewBox="0 0 45 50" fill="none" xmlns="http://www.w3.org/2000/svg">
<path d="M22.5 27.5C21.6437 27.4911 20.8049 27.7156 20.0966 28.1433C19.3882 28.5709 18.8442 29.1812 18.5378 29.892C18.2314 30.6028 18.1774 31.38 18.3829 32.1189C18.5885 32.8578 19.0438 33.523 19.6875 34.025V37.5C19.6875 38.163 19.9838 38.7989 20.5113 39.2678C21.0387 39.7366 21.7541 40 22.5 40C23.2459 40 23.9613 39.7366 24.4887 39.2678C25.0162 38.7989 25.3125 38.163 25.3125 37.5V34.025C25.9562 33.523 26.4115 32.8578 26.6171 32.1189C26.8226 31.38 26.7686 30.6028 26.4622 29.892C26.1558 29.1812 25.6118 28.5709 24.9034 28.1433C24.1951 27.7156 23.3563 27.4911 22.5 27.5ZM36.5625 17.5V12.5C36.5625 9.18479 35.0809 6.00537 32.4437 3.66117C29.8065 1.31696 26.2296 0 22.5 0C18.7704 0 15.1935 1.31696 12.5563 3.66117C9.91908 6.00537 8.4375 9.18479 8.4375 12.5V17.5C6.19974 17.5 4.05363 18.2902 2.47129 19.6967C0.888949 21.1032 0 23.0109 0 25V42.5C0 44.4891 0.888949 46.3968 2.47129 47.8033C4.05363 49.2098 6.19974 50 8.4375 50H36.5625C38.8003 50 40.9464 49.2098 42.5287 47.8033C44.1111 46.3968 45 44.4891 45 42.5V25C45 23.0109 44.1111 21.1032 42.5287 19.6967C40.9464 18.2902 38.8003 17.5 36.5625 17.5ZM14.0625 12.5C14.0625 10.5109 14.9514 8.60322 16.5338 7.1967C18.1161 5.79018 20.2622 5 22.5 5C24.7378 5 26.8839 5.79018 28.4662 7.1967C30.0486 8.60322 30.9375 10.5109 30.9375 12.5V17.5H14.0625V12.5ZM39.375 42.5C39.375 43.163 39.0787 43.7989 38.5512 44.2678C38.0238 44.7366 37.3084 45 36.5625 45H8.4375C7.69158 45 6.97621 44.7366 6.44876 44.2678C5.92132 43.7989 5.625 43.163 5.625 42.5V25C5.625 24.337 5.92132 23.7011 6.44876 23.2322C6.97621 22.7634 7.69158 22.5 8.4375 22.5H36.5625C37.3084 22.5 38.0238 22.7634 38.5512 23.2322C39.0787 23.7011 39.375 24.337 39.375 25V42.5Z" fill="#BFBABA"/>
</svg>
