<svg width="298" height="178" viewBox="0 0 298 178" fill="none" xmlns="http://www.w3.org/2000/svg">
<path d="M19.52 165.135H43.68V176.335H4V165.935L28 131.375H4V120.175H43.68V130.575L19.52 165.135ZM94.6962 153.295C94.6962 154.575 94.6163 155.909 94.4563 157.295H63.4963C63.7096 160.069 64.5896 162.202 66.1363 163.695C67.7363 165.135 69.6829 165.855 71.9763 165.855C75.3896 165.855 77.7629 164.415 79.0963 161.535H93.6563C92.9096 164.469 91.5496 167.109 89.5763 169.455C87.6563 171.802 85.2296 173.642 82.2963 174.975C79.3629 176.309 76.0829 176.975 72.4563 176.975C68.0829 176.975 64.1896 176.042 60.7763 174.175C57.3629 172.309 54.6963 169.642 52.7763 166.175C50.8563 162.709 49.8963 158.655 49.8963 154.015C49.8963 149.375 50.8296 145.322 52.6963 141.855C54.6163 138.389 57.2829 135.722 60.6963 133.855C64.1096 131.989 68.0296 131.055 72.4563 131.055C76.7763 131.055 80.6163 131.962 83.9763 133.775C87.3363 135.589 89.9496 138.175 91.8163 141.535C93.7363 144.895 94.6962 148.815 94.6962 153.295ZM80.6963 149.695C80.6963 147.349 79.8963 145.482 78.2963 144.095C76.6963 142.709 74.6963 142.015 72.2963 142.015C70.0029 142.015 68.0563 142.682 66.4563 144.015C64.9096 145.349 63.9496 147.242 63.5763 149.695H80.6963ZM115.593 117.135V176.335H101.913V117.135H115.593ZM145.827 176.975C141.454 176.975 137.507 176.042 133.987 174.175C130.52 172.309 127.774 169.642 125.747 166.175C123.774 162.709 122.787 158.655 122.787 154.015C122.787 149.429 123.8 145.402 125.827 141.935C127.854 138.415 130.627 135.722 134.147 133.855C137.667 131.989 141.614 131.055 145.987 131.055C150.36 131.055 154.307 131.989 157.827 133.855C161.347 135.722 164.12 138.415 166.147 141.935C168.174 145.402 169.187 149.429 169.187 154.015C169.187 158.602 168.147 162.655 166.067 166.175C164.04 169.642 161.24 172.309 157.667 174.175C154.147 176.042 150.2 176.975 145.827 176.975ZM145.827 165.135C148.44 165.135 150.654 164.175 152.467 162.255C154.334 160.335 155.267 157.589 155.267 154.015C155.267 150.442 154.36 147.695 152.547 145.775C150.787 143.855 148.6 142.895 145.987 142.895C143.32 142.895 141.107 143.855 139.347 145.775C137.587 147.642 136.707 150.389 136.707 154.015C136.707 157.589 137.56 160.335 139.267 162.255C141.027 164.175 143.214 165.135 145.827 165.135ZM227.398 147.535C230.651 148.229 233.264 149.855 235.238 152.415C237.211 154.922 238.198 157.802 238.198 161.055C238.198 165.749 236.544 169.482 233.238 172.255C229.984 174.975 225.424 176.335 219.558 176.335H193.398V120.175H218.678C224.384 120.175 228.838 121.482 232.038 124.095C235.291 126.709 236.918 130.255 236.918 134.735C236.918 138.042 236.038 140.789 234.278 142.975C232.571 145.162 230.278 146.682 227.398 147.535ZM207.078 142.895H216.038C218.278 142.895 219.984 142.415 221.158 141.455C222.384 140.442 222.998 138.975 222.998 137.055C222.998 135.135 222.384 133.669 221.158 132.655C219.984 131.642 218.278 131.135 216.038 131.135H207.078V142.895ZM217.158 165.295C219.451 165.295 221.211 164.789 222.438 163.775C223.718 162.709 224.358 161.189 224.358 159.215C224.358 157.242 223.691 155.695 222.358 154.575C221.078 153.455 219.291 152.895 216.998 152.895H207.078V165.295H217.158ZM274.772 176.335L263.092 155.135H259.812V176.335H246.132V120.175H269.092C273.519 120.175 277.279 120.949 280.372 122.495C283.519 124.042 285.865 126.175 287.412 128.895C288.959 131.562 289.732 134.549 289.732 137.855C289.732 141.589 288.665 144.922 286.532 147.855C284.452 150.789 281.359 152.869 277.252 154.095L290.212 176.335H274.772ZM259.812 145.455H268.292C270.799 145.455 272.665 144.842 273.892 143.615C275.172 142.389 275.812 140.655 275.812 138.415C275.812 136.282 275.172 134.602 273.892 133.375C272.665 132.149 270.799 131.535 268.292 131.535H259.812V145.455Z" fill="black"/>
<line x1="0.900269" y1="45.5227" x2="61.2205" y2="45.5227" stroke="#6FC63A" stroke-width="10"/>
<line x1="0.900269" y1="69.8309" x2="90.0302" y2="69.8309" stroke="#EAD200" stroke-width="10"/>
<line x1="0.900269" y1="95.0393" x2="115.239" y2="95.0393" stroke="#277AFF" stroke-width="10"/>
<line x1="236.779" y1="45.5227" x2="297.1" y2="45.5227" stroke="#6FC63A" stroke-width="10"/>
<line x1="207.97" y1="69.8309" x2="297.1" y2="69.8309" stroke="#EAD200" stroke-width="10"/>
<line x1="182.761" y1="95.0393" x2="297.1" y2="95.0393" stroke="#277AFF" stroke-width="10"/>
<path d="M185.012 62.3016L150.35 96.288M185.012 62.3016L173.458 73.6304M185.012 62.3016L208.12 39.644L173.458 5.65759L130.131 48.1406M185.012 62.3016L161.904 39.644L144.574 56.6372L130.131 48.1406M150.35 96.288L92.5811 39.644L127.243 5.65759L150.35 28.3152L130.131 48.1406M150.35 96.288L161.904 84.9592M173.458 73.6304L164.793 65.1338M173.458 73.6304L161.904 84.9592M161.904 84.9592L153.239 76.4626" stroke="black" stroke-width="10" stroke-linecap="round" stroke-linejoin="round"/>
</svg>
